<?xml version="1.0" encoding="utf-8"?>
<!-- Generator: Adobe Illustrator 23.1.1, SVG Export Plug-In . SVG Version: 6.00 Build 0)  -->
<svg version="1.1" id="Layer_1" xmlns="http://www.w3.org/2000/svg" xmlns:xlink="http://www.w3.org/1999/xlink" x="0px" y="0px"
	 viewBox="0 0 613.38 704" style="enable-background:new 0 0 613.38 704;" xml:space="preserve">
<style type="text/css">
	.st0{fill:#FFFFFF;}
</style>
<path class="st0" d="M462.72,565.75l-4.64,3l-8.82-14.1c-0.12,1.67-0.5,3.31-1.12,4.86c-1.03,2.12-2.66,3.89-4.68,5.1
	c-4,2.6-7.59,2.96-10.76,1.09c-2.12-1.44-3.88-3.36-5.13-5.6l-11-17.68l4.76-3.1l10.86,17.37c0.85,1.58,2.07,2.94,3.56,3.95
	c1.78,0.96,3.83,0.69,6.15-0.81c1.94-1.25,3.36-3.16,4-5.38c0.74-2.34-0.04-5.34-2.33-9l-9.21-14.62l4.64-3L462.72,565.75z"/>
<path class="st0" d="M400.81,582.42c-3.75-1.33-6.7-4.5-8.87-9.51c-2.09-4.82-2.65-9.33-1.69-13.54s3.88-7.43,8.77-9.67
	c4.07-1.86,7.9-1.95,11.51-0.27c3.61,1.68,6.42,4.86,8.45,9.55c2.18,5.03,2.65,9.61,1.42,13.74
	C417.67,580.8,408.9,585.15,400.81,582.42L400.81,582.42z M395.3,561.12c-0.11,3.18,0.51,6.35,1.82,9.25
	c0.91,2.37,2.38,4.5,4.27,6.2c2.59,2.11,5.59,2.39,9,0.82c2.78-1.06,4.74-3.58,5.09-6.54c0.32-3.23-0.24-6.48-1.61-9.42
	c-1.1-2.83-3.02-5.27-5.51-7c-2.3-1.49-4.95-1.55-7.94-0.18C397.14,555.75,395.44,558.04,395.3,561.12z"/>
<path class="st0" d="M385.86,591.75l-12.18-23.42l-0.06,26.69l-6,1.58l-12.26-23.24l-0.39,26.62l-5.31,1.41l1.47-34.17l5.51-1.47
	l12.43,22.88l0.22-26.26l5.52-1.47l16.86,29.32L385.86,591.75z"/>
<path class="st0" d="M321.94,613.13l-5.53,0.3l-0.3-9.17l-5.19,0.28l-0.16-4.51l5.19-0.28l-0.72-21.42c0.09-0.93-0.4-1.81-1.23-2.24
	c-0.68-0.23-1.41-0.31-2.13-0.23l-0.85,0.07c-0.36,0.04-0.71,0.09-1.06,0.16l-0.15-4.39c0.63-0.21,1.28-0.38,1.94-0.5
	c0.73-0.13,1.46-0.21,2.2-0.24c2.55-0.13,4.3,0.44,5.26,1.71c1.02,1.49,1.56,3.25,1.54,5.06l0.73,21.73l4.4-0.23l0.15,4.51
	l-4.4,0.23L321.94,613.13z"/>
<path class="st0" d="M279.75,600.22c-2.67-2.99-3.78-7.22-3.35-12.69c0.41-5.29,2.01-9.58,4.8-12.88c2.79-3.3,6.85-4.8,12.16-4.51
	c4.03,0.05,7.8,1.98,10.2,5.21c2.37,3.2,3.37,7.37,3,12.52c-0.42,5.51-2.13,9.81-5.13,12.92c-2.96,3.09-7.18,4.65-11.44,4.24
	C286.06,604.9,282.36,603.16,279.75,600.22z M284.81,578.61c-1.57,2.79-2.5,5.91-2.7,9.11c-0.3,2.55-0.01,5.13,0.86,7.55
	c1.29,3.11,3.79,4.77,7.5,5c2.94,0.36,5.83-0.97,7.48-3.43c1.8-2.74,2.83-5.9,3-9.17c0.35-3.04-0.2-6.12-1.58-8.86
	c-1.32-2.41-3.6-3.72-6.86-3.91c-3.59-0.25-6.16,0.98-7.7,3.67V578.61z"/>
<path class="st0" d="M250.36,575.43c0.38-1.47,0.34-3.01-0.12-4.46c-0.84-2.1-2.92-3.62-6.24-4.58c-1.83-0.55-3.78-0.61-5.64-0.17
	c-1.69,0.36-3.03,1.65-3.44,3.33c-0.43,1.28-0.08,2.68,0.88,3.62c1.26,1.09,2.63,2.03,4.1,2.81l3.91,2.27c1.96,1.05,3.75,2.4,5.3,4
	c1.78,1.84,2.41,4.51,1.65,6.95c-0.74,2.82-2.72,5.15-5.39,6.34c-2.7,1.24-5.87,1.34-9.5,0.29c-4.75-1.33-7.75-3.71-9-7.14
	c-0.79-2.01-0.86-4.22-0.21-6.28l4.94,1.41c-0.26,1.21-0.16,2.48,0.31,3.63c0.81,1.75,2.74,3.05,5.77,3.92
	c1.59,0.58,3.32,0.64,4.94,0.17c1.2-0.39,2.13-1.36,2.47-2.58c0.41-1.4-0.01-2.9-1.08-3.89c-0.91-0.92-1.96-1.69-3.1-2.3l-3.27-1.86
	c-3.56-2-5.86-3.63-6.91-4.9c-1.63-1.94-2.01-4.37-1.14-7.29c0.79-2.83,2.74-5.19,5.37-6.5c2.74-1.44,6.29-1.53,10.64-0.28
	c4.67,1.33,7.67,3.35,9,6.06c1.33,2.75,1.6,5.9,0.78,8.84L250.36,575.43z"/>
<path class="st0" d="M196.62,578.96c-1.41-1.69-2.33-3.73-2.69-5.9c-0.28-2.08-0.13-4.19,0.45-6.2c0.65-2.35,1.51-4.63,2.58-6.82
	l21.46,9.67c1.23-2.59,1.66-5.48,1.25-8.31c-0.47-2.44-2.09-4.28-4.84-5.52c-2.3-1.16-5-1.21-7.34-0.15
	c-1.33,0.64-2.5,1.56-3.43,2.71l-4.87-2.2c0.8-1.21,1.81-2.27,3-3.11c1.19-0.94,2.52-1.7,3.94-2.24c2.21-0.82,4.62-1.01,6.93-0.53
	c1.46,0.28,2.88,0.74,4.23,1.36c3.56,1.55,6.27,4.57,7.42,8.27c1.29,3.87,0.82,8.26-1.41,13.15s-5.3,8.23-9.19,10
	c-3.81,1.86-8.27,1.86-12.08,0C199.92,582.2,198.07,580.77,196.62,578.96z M200.23,566.35c-0.73,1.87-1.07,3.87-1,5.88
	c0.24,3.04,1.93,5.27,5.08,6.69c2.17,1,4.66,1,6.83,0c2.36-1.06,4.26-2.94,5.34-5.29L200.23,566.35z"/>
<path class="st0" d="M175.74,579.3l-4.73-2.81l4.72-7.93l-4.43-2.64l2.32-3.9l4.43,2.64l11-18.53c0.57-0.74,0.65-1.76,0.19-2.58
	c-0.43-0.58-0.99-1.05-1.64-1.37c-0.22-0.14-0.47-0.27-0.74-0.42s-0.58-0.29-1-0.45l2.26-3.79c0.64,0.17,1.27,0.38,1.88,0.65
	c0.67,0.29,1.31,0.63,1.94,1c2.18,1.3,3.32,2.75,3.42,4.35c0.04,1.82-0.47,3.62-1.47,5.14l-11.19,18.8l3.76,2.24l-2.32,3.9
	l-3.76-2.24L175.74,579.3z"/>
<path class="st0" d="M145.36,547.1l14.38-16.54c0.97-1.04,1.7-2.28,2.13-3.63c0.59-2.11-0.07-4.01-2-5.72
	c-2.4-2.37-6.11-2.82-9-1.08c-2.22,1.3-4.19,3-5.81,5l-10.7,12.26l-4.08-3.6l21.67-24.92l3.85,3.4l-3.24,3.64
	c1.28-0.48,2.64-0.71,4-0.69c2.71,0.07,5.29,1.14,7.26,3c3.39,3,4.67,6.23,3.84,9.69c-0.65,2.25-1.82,4.3-3.43,6l-14.73,16.94
	L145.36,547.1z"/>
<path class="st0" d="M122.14,525.35l-3.42-4.13l3.32-2.85c-1.66,0.16-3.33-0.01-4.93-0.48c-2.2-0.67-4.14-1.99-5.57-3.79
	c-2.34-2.77-3.34-6.43-2.74-10c0.52-3.84,2.81-7.49,6.84-10.95c5.46-4.67,10.54-6.58,15.25-5.74c2.94,0.51,5.6,2.07,7.48,4.4
	c1.45,1.63,2.39,3.64,2.71,5.8c0.14,1.53,0.03,3.07-0.32,4.56l12.78-10.95l3.49,4.18L122.14,525.35z M128.62,492.78
	c-2.72,0.11-5.72,1.57-9,4.38c-1.8,1.46-3.3,3.25-4.43,5.27c-1.85,3.45-1.57,6.63,0.85,9.52c2.42,2.89,5.53,3.65,9.32,2.27
	c2.45-1.01,4.7-2.43,6.66-4.22c1.72-1.41,3.15-3.13,4.21-5.09c1.71-3.01,1.27-6.78-1.1-9.3
	C133.56,493.66,131.13,492.6,128.62,492.78z"/>
<path class="st0" d="M91.74,457.88c-0.51-0.93-1.48-1.51-2.54-1.51c-0.71,0.08-1.39,0.31-2,0.67c-1.51,0.66-2.55,2.07-2.73,3.71
	c-0.06,1.99,0.44,3.95,1.44,5.67c1.29,2.54,2.9,3.98,4.81,4.31c1.37,0.15,2.75-0.07,4-0.64l2.31,4.55c-3.63,1.82-6.71,1.99-9.25,0.5
	c-2.6-1.58-4.69-3.89-6-6.64c-1.6-2.85-2.39-6.08-2.26-9.35c0.21-2.79,1.92-5.24,4.46-6.4l16.71-8.87c0.44-0.22,0.81-0.57,1.06-1
	c0.19-0.52,0.11-1.11-0.21-1.56c-0.12-0.24-0.26-0.48-0.41-0.71c-0.17-0.26-0.35-0.53-0.56-0.81l3.6-1.91
	c0.46,0.48,0.89,0.99,1.29,1.52c0.33,0.51,0.63,1.04,0.9,1.58c0.85,1.41,0.88,3.17,0.07,4.61c-0.59,0.9-1.36,1.68-2.26,2.27
	c2.02,0.39,3.92,1.24,5.56,2.48c1.94,1.4,3.5,3.25,4.55,5.4c1.34,2.41,1.66,5.25,0.9,7.9c-0.73,2.53-2.48,4.64-4.83,5.82
	c-2.26,1.38-5.02,1.67-7.52,0.8c-2.52-1.05-4.64-2.86-6.09-5.17L91.74,457.88z M110.12,461.16c0.29-1.47,0.06-2.99-0.64-4.31
	c-0.88-1.73-2.15-3.22-3.72-4.36c-2.42-1.99-5.83-2.24-8.52-0.63l-3.88,2.08c0.79,0.49,1.51,1.1,2.12,1.8
	c0.69,0.78,1.32,1.61,1.88,2.48l1.87,2.75c0.82,1.32,1.89,2.47,3.13,3.4c1.56,1.06,3.6,1.1,5.2,0.11
	C108.9,463.84,109.85,462.61,110.12,461.16L110.12,461.16z"/>
<path class="st0" d="M71.81,445.36l-1.64-4.95l4.38-1.56c-2.04-0.67-3.9-1.78-5.44-3.27c-1.38-1.43-2.4-3.16-3-5.05
	c-1.46-4.4-0.92-7.92,1.62-10.55c1.94-1.76,4.24-3.06,6.75-3.82l19.79-7l1.76,5.29l-19.45,6.91c-1.59,0.5-3.04,1.34-4.27,2.46
	c-1.61,1.58-2.09,3.98-1.21,6.06c0.31,1.03,0.78,2.01,1.38,2.91c1.76,2.33,4.58,3.62,7.5,3.43c1.64-0.25,3.24-0.67,4.79-1.26
	l16.17-5.74l1.73,5.21L71.81,445.36z"/>
<path class="st0" d="M68.11,371.31c-0.13-1.05-0.83-1.95-1.82-2.34c-0.69-0.2-1.42-0.24-2.13-0.11c-1.64,0.08-3.1,1.02-3.85,2.48
	c-0.76,1.85-1,3.87-0.69,5.85c0.29,2.86,1.26,4.8,2.92,5.81c1.21,0.64,2.57,0.93,3.93,0.85l0.51,5.12c-4,0.38-6.91-0.59-8.74-2.91
	c-1.87-2.44-2.99-5.37-3.22-8.44c-0.47-3.25-0.04-6.57,1.24-9.6c1.17-2.52,3.63-4.21,6.41-4.38l18.69-2.25
	c0.49-0.03,0.95-0.22,1.33-0.52c0.36-0.42,0.5-1,0.36-1.54c-0.02-0.27-0.06-0.54-0.12-0.81c-0.07-0.31-0.14-0.62-0.24-1l4-0.49
	c0.26,0.62,0.47,1.25,0.65,1.9c0.13,0.6,0.22,1.21,0.27,1.82c0.29,1.63-0.32,3.28-1.58,4.35c-0.87,0.63-1.85,1.08-2.9,1.31
	c1.74,1.11,3.19,2.6,4.26,4.36c1.3,2.02,2.09,4.33,2.3,6.72c0.37,2.75-0.34,5.53-2,7.75c-1.56,2.11-3.94,3.46-6.55,3.71
	c-2.6,0.48-5.27-0.26-7.25-2c-1.96-1.91-3.29-4.38-3.8-7.07L68.11,371.31z M83.96,381.09c0.79-1.28,1.12-2.79,0.94-4.28
	c-0.2-1.94-0.84-3.8-1.88-5.45c-1.51-2.74-4.59-4.22-7.67-3.7l-4.37,0.53c0.56,0.75,1,1.58,1.31,2.46c0.38,0.98,0.69,1.98,0.92,3
	l0.75,3.26c0.3,1.53,0.87,3,1.69,4.33c1.05,1.56,2.93,2.35,4.78,2C81.89,383.13,83.2,382.33,83.96,381.09z"/>
<path class="st0" d="M42.36,353.28v-5.52l44.61-0.7v5.53L42.36,353.28z"/>
<path class="st0" d="M69.13,320.56c0.08-1.06-0.42-2.08-1.3-2.67c-0.62-0.33-1.3-0.53-2-0.56c-1.61-0.27-3.24,0.36-4.26,1.64
	c-1.12,1.66-1.77,3.6-1.87,5.6c-0.3,2.87,0.25,4.98,1.66,6.32c1.05,0.87,2.31,1.44,3.65,1.65l-0.54,5.14
	c-4-0.47-6.64-2.03-7.93-4.68c-1.32-2.8-1.81-5.93-1.41-9c0.2-3.29,1.3-6.46,3.17-9.18c1.64-2.24,4.39-3.39,7.14-3l18.63,1.68
	c0.48,0.07,0.97-0.01,1.4-0.23c0.44-0.34,0.69-0.87,0.67-1.43c0-0.25,0-0.53,0-0.83s0-0.64,0-1l4,0.36c0.12,0.66,0.21,1.33,0.25,2
	c0,0.62-0.04,1.24-0.11,1.85c-0.05,1.65-0.98,3.16-2.43,3.95c-0.97,0.43-2.02,0.66-3.09,0.67c1.46,1.46,2.58,3.23,3.26,5.18
	c0.86,2.26,1.15,4.68,0.87,7.08c-0.19,2.77-1.46,5.35-3.52,7.2c-1.95,1.74-4.55,2.56-7.14,2.27c-2.64-0.07-5.1-1.35-6.67-3.47
	c-1.52-2.29-2.3-4.98-2.25-7.73L69.13,320.56z M82.58,333.48c1.03-1.09,1.66-2.5,1.79-4c0.21-1.95-0.04-3.92-0.73-5.75
	c-0.89-3-3.59-5.1-6.71-5.23l-4.38-0.39c0.4,0.85,0.67,1.76,0.79,2.69c0.17,1.05,0.26,2.1,0.27,3.16l0.07,3.37
	c-0.02,1.57,0.23,3.13,0.76,4.61c0.69,1.76,2.36,2.94,4.25,3C80.15,335.11,81.6,334.57,82.58,333.48z"/>
<path class="st0" d="M59.54,299.49l1.17-5.14l5.48,1.17c-1.33-1.07-2.42-2.4-3.19-3.92c-1.14-1.84-1.5-4.06-1-6.17
	c0.04-0.17,0.09-0.34,0.15-0.51c0.07-0.23,0.2-0.63,0.39-1.2l5.63,1.2c-0.13,0.31-0.24,0.6-0.32,0.86s-0.16,0.56-0.23,0.88
	c-0.69,2.33-0.26,4.85,1.16,6.83c1.33,1.8,3.28,3.03,5.47,3.47l18.23,3.91l-1.23,5.41L59.54,299.49z"/>
<path class="st0" d="M64.64,275.61l2-5.1l4.28,1.66c-0.84-1.43-1.49-2.97-1.92-4.58c-0.47-2.16-0.27-4.41,0.57-6.46
	c0.74-2.16,2.19-4,4.11-5.23c1.21-0.63,2.54-1.02,3.9-1.13c-1.11-1.62-1.79-3.49-2-5.44c-0.15-1.93,0.16-3.88,0.9-5.67
	c1.63-4.13,4.2-6.37,7.73-6.73c2.35-0.11,4.69,0.32,6.84,1.27l20.09,7.79l-2.12,5.37l-21-8.14c-2-0.78-3.58-0.8-4.75-0.07
	c-1.2,0.79-2.12,1.95-2.61,3.3c-0.79,1.92-0.82,4.06-0.07,6c0.76,2,2.7,3.59,5.81,4.78l17.55,6.81l-2.07,5.25l-19.69-7.64
	c-1.49-0.7-3.13-1.04-4.78-1c-1.72,0.23-3,1.41-3.85,3.56c-0.77,2-0.72,4.22,0.13,6.19c0.85,2.17,3.22,4.01,7.11,5.52l16,6.21
	l-2,5.17L64.64,275.61z"/>
<path class="st0" d="M111.21,190.6c2.8-0.86,6.09-0.22,9.87,1.93l-3.14,4.39c-1.64-0.86-3.49-1.23-5.34-1.07
	c-1.75,0.18-3.38,1.33-4.89,3.43c-2.04,2.67-2.17,6.34-0.3,9.14c1.46,2.38,3.41,4.42,5.72,6c2.27,1.75,5,2.82,7.86,3.08
	c2.64,0.13,5.14-1.18,6.53-3.43c1.27-1.6,1.81-3.65,1.51-5.66c-0.44-2.1-1.46-4.04-2.95-5.58l3.14-4.39
	c3.12,3.01,4.77,6.1,4.94,9.27c0.1,3.41-1,6.76-3.1,9.45c-2.19,3.32-5.8,5.43-9.77,5.69c-4.19,0.23-8.32-1.06-11.64-3.63
	c-4.6-3.33-7.37-7.07-8.3-11.2c-0.95-4.01-0.06-8.24,2.42-11.53C105.53,193.75,108.15,191.68,111.21,190.6z"/>
<path class="st0" d="M108.54,172.37l3.64-4.19l33.28,29.4l-3.64,4.19L108.54,172.37z"/>
<path class="st0" d="M147.8,154.14c4,0.06,7.82,2.08,11.47,6.06c3.53,3.86,5.5,7.92,5.93,12.19c0.43,4.27-1.33,8.27-5.28,12
	c-3.28,3.08-6.91,4.41-10.88,4c-4-0.42-7.67-2.49-11.09-6.24c-3.68-4-5.59-8.15-5.72-12.46c-0.14-4.31,1.68-8.45,4.94-11.27
	C140,155.62,143.83,154.08,147.8,154.14z M159.8,172.39c-0.91-3.03-2.51-5.81-4.68-8.11c-1.62-1.93-3.68-3.45-6-4.44
	c-3.14-1.15-6.09-0.44-8.84,2.15c-2.45,2.29-3.37,4.89-2.77,7.81c0.73,3.14,2.3,6.02,4.54,8.34c1.96,2.31,4.56,3.98,7.48,4.8
	c2.67,0.67,5.21-0.14,7.62-2.42c2.64-2.48,3.53-5.2,2.68-8.13H159.8z"/>
<path class="st0" d="M175.43,131.53c2.9,0.13,5.77,1.85,8.6,5.18l-4.4,3.1c-1.24-1.37-2.85-2.35-4.64-2.83
	c-1.7-0.42-3.6,0.11-5.71,1.6c-2.89,2-3.99,4.85-3.32,8.56c0.58,2.74,1.73,5.32,3.37,7.59c1.53,2.43,3.72,4.36,6.32,5.58
	c2.39,1,4.81,0.69,7.26-1c1.72-1.09,2.91-2.85,3.29-4.85c0.29-2.14-0.02-4.32-0.91-6.29l4.4-3.1c1.92,3.92,2.43,7.41,1.54,10.47
	c-1.02,3.25-3.15,6.04-6,7.9c-3.13,2.39-7.21,3.17-11,2.08c-4.01-1.22-7.45-3.85-9.68-7.4c-3.21-4.72-4.54-9.2-4-13.44
	c0.43-4.11,2.66-7.81,6.09-10.11C169.15,132.6,172.25,131.53,175.43,131.53z"/>
<path class="st0" d="M179.73,112.64l4.7-2.46l11.56,23.21l6.37-18.94l6.24-3.26l-5.78,16.68L223.75,140l-6.25,3.27l-16.53-10.05
	l-2.08,6l5.47,10.93l-4.7,2.46L179.73,112.64z"/>
<path class="st0" d="M230.94,89.42l5.3-1.46l4.12,16.26c0.62-1.56,1.48-3.01,2.54-4.31c1.62-1.71,3.71-2.91,6-3.44
	c4.57-1.26,8.08-0.51,10.52,2.26c1.58,2.06,2.67,4.45,3.17,7l5.13,20.34l-5.44,1.5l-5.05-20c-0.33-1.77-1.07-3.44-2.17-4.87
	c-1.4-1.48-3.43-1.85-6.08-1.12c-2.22,0.62-4.13,2.01-5.4,3.93c-1.4,2-1.57,5.12-0.5,9.35l4.25,16.82l-5.3,1.46L230.94,89.42z"/>
<path class="st0" d="M294.58,92.48c3.14,2.46,4.99,6.41,5.54,11.85c0.53,5.26-0.29,9.76-2.47,13.49c-2.17,3.74-5.91,5.92-11.21,6.57
	c-4.42,0.53-8.09-0.56-11-3.28c-2.91-2.72-4.61-6.64-5.08-11.75c-0.55-5.48,0.38-10.01,2.79-13.59c4.93-6.82,14.45-8.36,21.28-3.43
	c0.06,0.05,0.13,0.09,0.19,0.14H294.58z M293.36,114.59c1.06-3.02,1.42-6.24,1.06-9.42c-0.15-2.55-0.89-5.04-2.18-7.25
	c-1.82-2.82-4.58-4.01-8.28-3.56c-2.97,0.17-5.58,1.99-6.78,4.71c-1.28,3-1.73,6.29-1.31,9.52c0.19,3.04,1.27,5.97,3.11,8.4
	c1.73,2.14,4.21,3,7.46,2.61C290.04,119.22,292.36,117.5,293.36,114.59z"/>
<path class="st0" d="M311.55,88.13l4.47,26.2l8.1-25.55l6.12,0.31l4.61,26.05l8.39-25.38l5.46,0.28l-11.67,32.35l-5.67-0.29
	l-4.86-25.75l-8.14,25.08l-5.67-0.29l-7.12-33.31L311.55,88.13z"/>
<path class="st0" d="M378.58,87.41l5.32,1.43l-2.49,8.87l5,1.35l-1.22,4.36l-5-1.34l-5.83,20.73c-0.36,0.86-0.17,1.86,0.48,2.53
	c0.59,0.44,1.27,0.74,2,0.88l0.82,0.2c0.3,0.06,0.65,0.12,1.05,0.17l-1.19,4.25c-0.67,0.01-1.34-0.03-2-0.13
	c-0.73-0.11-1.45-0.28-2.16-0.49c-2.46-0.66-3.94-1.75-4.46-3.26c-0.52-1.74-0.49-3.6,0.08-5.32l5.91-21l-4.24-1.14l1.23-4.36
	l4.23,1.14L378.58,87.41z"/>
<path class="st0" d="M414.55,112.91c1.6,3.68,1.37,8.07-0.69,13.18c-2,4.94-4.81,8.55-8.44,10.84c-3.63,2.29-7.91,2.46-12.86,0.51
	c-3.81-1.32-6.79-4.33-8.07-8.15c-1.27-3.81-0.93-8.11,1-12.91c2.07-5.15,5-8.74,8.78-10.78c3.73-2.03,8.2-2.22,12.09-0.51
	C410.06,106.45,413.02,109.28,414.55,112.91z M403.2,132.03c2.34-2.2,4.16-4.89,5.32-7.89c1.06-2.35,1.57-4.92,1.48-7.5
	c-0.27-3.37-2.12-5.74-5.57-7.11c-2.68-1.25-5.83-0.86-8.12,1c-2.52,2.08-4.45,4.79-5.59,7.86c-1.26,2.82-1.68,5.95-1.2,9
	c0.52,2.72,2.28,4.68,5.3,5.88C398.14,134.53,400.94,134.12,403.2,132.03z"/>
<path class="st0" d="M434.88,145.7c-0.8,1.29-1.22,2.79-1.22,4.31c0.16,2.27,1.67,4.37,4.53,6.3c1.55,1.1,3.36,1.76,5.25,1.93
	c1.71,0.17,3.36-0.66,4.25-2.13c0.79-1.1,0.89-2.55,0.25-3.74c-0.84-1.44-1.85-2.79-3-4l-3-3.38c-1.55-1.59-2.85-3.42-3.83-5.42
	c-1.16-2.3-0.96-5.06,0.52-7.17c1.54-2.46,4.11-4.09,7-4.42c2.93-0.35,5.96,0.53,9.09,2.64c4.09,2.77,6.23,5.98,6.41,9.62
	c0.14,2.16-0.46,4.31-1.69,6.09l-4.26-2.88c0.61-1.09,0.89-2.33,0.8-3.57c-0.25-1.92-1.68-3.77-4.29-5.53
	c-1.33-1.04-2.95-1.62-4.63-1.68c-1.26,0.01-2.43,0.65-3.11,1.71c-0.8,1.22-0.86,2.78-0.15,4.06c0.58,1.16,1.34,2.23,2.25,3.16
	l2.54,2.79c2.76,3,4.44,5.3,5.06,6.81c1,2.37,0.59,4.81-1.1,7.34c-1.6,2.41-4.14,4.03-7,4.47c-3,0.53-6.41-0.47-10.17-3
	c-4-2.73-6.24-5.59-6.71-8.58c-0.42-3.04,0.26-6.12,1.92-8.7L434.88,145.7z"/>
<path class="st0" d="M486.84,158.79c0.83,2.05,1.09,4.29,0.78,6.48c-0.35,2.07-1.13,4.05-2.29,5.8c-1.31,2.05-2.81,3.98-4.49,5.75
	l-17.42-15.85c-1.95,2.11-3.23,4.75-3.68,7.58c-0.29,2.49,0.69,4.74,2.92,6.78c1.82,1.81,4.36,2.69,6.91,2.39
	c1.45-0.2,2.84-0.73,4.06-1.54l4,3.6c-1.11,0.92-2.38,1.62-3.74,2.08c-1.41,0.53-2.9,0.85-4.41,0.93c-2.35,0.11-4.68-0.45-6.72-1.62
	c-1.3-0.71-2.51-1.59-3.6-2.6c-2.91-2.59-4.57-6.3-4.54-10.2c-0.1-4.1,1.65-8.15,5.24-12.15s7.5-6.27,11.72-6.8
	c4.18-0.62,8.41,0.75,11.44,3.7C484.73,154.68,486.04,156.62,486.84,158.79z M479.64,169.79c1.26-1.57,2.18-3.39,2.71-5.33
	c0.67-2.98-0.27-5.65-2.81-8c-1.73-1.63-4.09-2.41-6.45-2.14c-2.56,0.29-4.92,1.52-6.64,3.44L479.64,169.79z"/>
<path class="st0" d="M506.75,164.93l3.62,4.15l-6.85,6.14l3.41,3.89l-3.37,3l-3.41-3.9l-16,14.38c-0.79,0.53-1.18,1.48-1,2.41
	c0.24,0.68,0.63,1.31,1.14,1.82c0.17,0.2,0.36,0.4,0.57,0.62s0.47,0.46,0.78,0.73l-3.28,2.98c-0.56-0.35-1.09-0.75-1.58-1.2
	c-0.55-0.49-1.06-1.02-1.54-1.57c-1.67-1.91-2.32-3.65-1.93-5.22c0.5-1.75,1.53-3.31,2.94-4.47l16.25-14.59l-2.89-3.3l3.37-3
	l2.89,3.3L506.75,164.93z"/>
<path class="st0" d="M525.79,205.22l-18.63,11.38c-1.24,0.69-2.3,1.65-3.12,2.81c-1.2,1.84-1.15,3.87,0.16,6.1
	c1.52,3.04,4.93,4.63,8.23,3.84c2.5-0.57,4.87-1.58,7-3l13.79-8.42l2.76,4.72l-28.07,17.13l-2.55-4.45l4.17-2.48
	c-4.15,0.19-8.03-2.02-10-5.67c-2.3-3.93-2.53-7.42-0.69-10.47c1.29-1.94,3.02-3.54,5.06-4.66l19.08-11.65L525.79,205.22z"/>
<path class="st0" d="M541.12,233.22l2,5l-4,1.69c1.62,0.37,3.15,1.05,4.52,2c1.88,1.33,3.32,3.19,4.12,5.35
	c1.37,3.37,1.22,7.17-0.43,10.42c-1.66,3.52-4.92,6.31-9.79,8.37c-6.59,2.78-11.98,3.04-16.18,0.77c-2.64-1.41-4.69-3.73-5.75-6.53
	c-0.88-2.01-1.16-4.23-0.81-6.39c0.34-1.5,0.91-2.94,1.69-4.27l-15.42,6.59l-2-5.09L541.12,233.22z M525.12,262.4
	c2.61,0.74,5.89,0.27,9.84-1.4c2.14-0.85,4.1-2.1,5.78-3.68c2.7-2.32,3.55-6.14,2.08-9.38c-1.42-3.53-4.15-5.19-8.18-5
	c-2.62,0.22-5.18,0.89-7.57,2c-2.07,0.81-3.95,2.03-5.53,3.58c-2.53,2.37-3.24,6.1-1.77,9.24c0.91,2.34,2.91,4.08,5.35,4.65V262.4z"
	/>
<path class="st0" d="M549.51,307.22c0.2,1.06,0.97,1.91,2,2.23c0.7,0.16,1.43,0.16,2.13,0c1.63-0.18,3.04-1.21,3.7-2.71
	c0.66-1.89,0.78-3.93,0.34-5.88c-0.45-2.83-1.54-4.7-3.25-5.61c-1.25-0.56-2.64-0.77-4-0.61l-0.81-5.07c4-0.63,6.97,0.16,8.9,2.37
	c2.01,2.32,3.3,5.17,3.72,8.21c0.66,3.22,0.43,6.56-0.67,9.66c-1.02,2.59-3.38,4.41-6.15,4.75l-18.49,3.38
	c-0.48,0.07-0.93,0.27-1.3,0.59c-0.34,0.45-0.44,1.03-0.27,1.56c0.04,0.24,0.1,0.51,0.18,0.81c0.08,0.32,0.18,0.63,0.29,0.94
	l-4,0.73c-0.3-0.6-0.55-1.22-0.76-1.86c-0.17-0.59-0.29-1.19-0.38-1.79c-0.38-1.61,0.12-3.3,1.32-4.44
	c0.83-0.68,1.79-1.18,2.82-1.48c-1.8-1-3.34-2.4-4.52-4.09c-1.41-1.94-2.34-4.19-2.69-6.56c-0.54-2.72,0.01-5.53,1.53-7.85
	c1.44-2.19,3.73-3.68,6.32-4.1c2.56-0.63,5.28-0.06,7.37,1.55c2.07,1.79,3.54,4.17,4.21,6.82L549.51,307.22z M533.09,298.43
	c-0.71,1.32-0.95,2.85-0.69,4.33c0.32,1.92,1.07,3.74,2.21,5.32c1.68,2.64,4.84,3.94,7.89,3.22l4.33-0.79
	c-0.6-0.71-1.09-1.51-1.46-2.37c-0.44-0.97-0.8-1.97-1.09-3l-0.95-3.21c-0.39-1.51-1.06-2.94-1.97-4.21
	c-1.15-1.49-3.07-2.16-4.89-1.71c-1.44,0.22-2.69,1.1-3.38,2.39L533.09,298.43z"/>
<path class="st0" d="M564.63,325.33l0.06,5.25l-4.61,0.14c1.73,1.27,3.15,2.91,4.16,4.81c0.87,1.8,1.32,3.76,1.32,5.76
	c0.06,4.67-1.51,7.87-4.71,9.6c-2.36,1.1-4.95,1.64-7.55,1.59l-20.86,0.66l-0.08-5.62l20.5-0.64c1.65,0.03,3.28-0.32,4.78-1
	c2.02-1.02,3.22-3.18,3-5.44c0.02-1.09-0.13-2.17-0.43-3.21c-0.5-1.54-1.44-2.9-2.72-3.9c-0.96-0.83-2.11-1.41-3.35-1.69
	c-1.62-0.27-3.27-0.36-4.91-0.26l-17,0.53l-0.06-5.52L564.63,325.33z"/>
<path class="st0" d="M545.78,397.45c-0.19,1.04,0.2,2.11,1,2.8c0.6,0.41,1.28,0.67,2,0.77c1.57,0.43,3.25-0.02,4.39-1.19
	c1.29-1.54,2.13-3.41,2.43-5.39c0.59-2.83,0.25-4.99-1-6.46c-0.95-0.97-2.15-1.66-3.46-2l1.07-5.06c3.91,0.87,6.37,2.7,7.39,5.48
	c1.02,2.92,1.19,6.07,0.49,9.08c-0.54,3.25-1.96,6.3-4.09,8.82c-1.86,2.05-4.71,2.9-7.39,2.21l-18.33-3.62
	c-0.47-0.11-0.96-0.09-1.41,0.08c-0.38,0.17-0.65,0.62-0.81,1.36c-0.05,0.24-0.09,0.52-0.13,0.83s-0.05,0.63-0.07,1l-4-0.78
	c-0.04-0.67-0.04-1.33,0-2c0.06-0.62,0.15-1.23,0.29-1.83c0.22-1.64,1.29-3.04,2.81-3.68c1.01-0.33,2.08-0.45,3.14-0.35
	c-1.3-1.61-2.22-3.48-2.71-5.49c-0.61-2.34-0.65-4.79-0.13-7.15c0.46-2.74,1.98-5.18,4.23-6.81c2.11-1.53,4.77-2.08,7.32-1.52
	c2.61,0.35,4.92,1.88,6.26,4.15c1.28,2.44,1.78,5.21,1.45,7.95L545.78,397.45z M533.78,383.17c-1.14,0.99-1.91,2.33-2.19,3.81
	c-0.4,1.92-0.36,3.9,0.13,5.8c0.58,3.08,3.04,5.45,6.14,5.92l4.3,0.85c-0.31-0.89-0.48-1.82-0.51-2.76c-0.08-1.06-0.08-2.13,0-3.19
	l0.28-3.36c0.19-1.56,0.09-3.14-0.28-4.67c-0.52-1.81-2.06-3.14-3.92-3.39c-1.42-0.32-2.9,0.07-3.98,1.04L533.78,383.17z"/>
<path class="st0" d="M564.67,422.69l-1.7,5.29l-42.41-13.19l1.69-5.28L564.67,422.69z"/>
<path class="st0" d="M529.41,445.71c-0.42,1-0.26,2.15,0.41,3c0.5,0.52,1.11,0.92,1.78,1.17c1.44,0.75,3.17,0.65,4.52-0.25
	c1.58-1.25,2.78-2.9,3.47-4.79c1.16-2.67,1.28-4.85,0.35-6.55c-0.73-1.17-1.77-2.11-3-2.72l2.08-4.75c3.63,1.68,5.65,3.99,6.08,6.94
	c0.4,3.07-0.08,6.19-1.38,9c-1.2,3.07-3.2,5.76-5.79,7.8c-2.21,1.6-5.12,1.86-7.57,0.66l-17.11-7.39c-0.43-0.21-0.92-0.28-1.39-0.21
	c-0.41,0.08-0.77,0.47-1.07,1.17c-0.11,0.25-0.21,0.51-0.3,0.78c-0.09,0.29-0.18,0.62-0.27,1l-3.69-1.6c0.08-0.67,0.21-1.34,0.38-2
	c0.18-0.6,0.4-1.18,0.66-1.74c0.55-1.55,1.88-2.7,3.5-3c1.05-0.12,2.11-0.01,3.12,0.31c-0.94-1.86-1.46-3.91-1.51-6
	c-0.12-2.43,0.34-4.85,1.34-7.06c1.01-2.58,2.99-4.66,5.51-5.8c2.37-1.08,5.08-1.08,7.45,0c2.48,0.91,4.41,2.89,5.25,5.39
	c0.74,2.66,0.66,5.49-0.22,8.11L529.41,445.71z M520.6,429.22c-1.31,0.73-2.34,1.88-2.91,3.27c-0.78,1.8-1.14,3.76-1.05,5.73
	c-0.07,3.13,1.83,5.97,4.76,7.1l4,1.73c-0.12-0.94-0.1-1.89,0.07-2.82c0.16-1.05,0.39-2.09,0.7-3.11l1-3.25
	c0.51-1.49,0.74-3.06,0.68-4.64c-0.13-1.88-1.35-3.51-3.12-4.16C523.42,428.44,521.87,428.49,520.6,429.22z"/>
<path class="st0" d="M532.05,469.05l-2.7,4.53l-4.8-2.86c0.92,1.45,1.52,3.07,1.78,4.77c0.49,2.12,0.13,4.35-1,6.21
	c0,0.09-0.15,0.23-0.29,0.43l-0.75,1l-4.93-2.91c0.2-0.23,0.39-0.47,0.57-0.72c0.16-0.23,0.32-0.49,0.49-0.77
	c1.37-2.02,1.74-4.56,1-6.89c-0.7-2.13-2.15-3.93-4.08-5.06l-16-9.52l2.84-4.78L532.05,469.05z"/>
<path class="st0" d="M520.11,490.09l-3.45,4.28l-3.55-2.91c0.37,1.64,0.52,3.32,0.44,5c-0.2,2.21-1.06,4.3-2.48,6
	c-2.04,3.14-5.87,4.61-9.49,3.64c0.56,1.89,0.65,3.89,0.26,5.82c-0.43,1.9-1.31,3.67-2.55,5.17c-2.78,3.46-5.89,4.82-9.34,4.08
	c-2.26-0.62-4.35-1.75-6.1-3.31l-16.69-13.64l3.62-4.49l17.41,14.22c1.67,1.36,3.17,1.87,4.48,1.52c1.38-0.39,2.6-1.22,3.46-2.37
	c1.34-1.6,2.01-3.66,1.87-5.74c-0.12-2.13-1.48-4.25-4.07-6.37l-14.57-11.89l3.54-4.4l16.36,13.36c1.21,1.12,2.65,1.95,4.23,2.42
	c1.69,0.3,3.27-0.45,4.71-2.24c1.34-1.7,1.97-3.85,1.74-6c-0.16-2.34-1.85-4.83-5.08-7.47l-13.3-10.83l3.48-4.32L520.11,490.09z"/>
</svg>
